<svg width="450" height="63" viewBox="0 0 450 63" fill="none" xmlns="http://www.w3.org/2000/svg">
<rect width="450" height="30" rx="15" fill="#A6ACB8"/>
<rect width="360" height="30" rx="15" fill="#295773"/>
<circle cx="345" cy="15" r="15" fill="#D9D9D9"/>
<path d="M344.776 53.16H337.48V52.056C339.016 49.928 340.168 47.96 340.936 46.152C341.704 44.344 342.168 42.36 342.328 40.2C342.472 40.168 342.68 40.152 342.952 40.152C343.992 40.152 344.512 40.704 344.512 41.808C344.512 43.168 344.032 44.76 343.072 46.584C342.128 48.408 341.064 50.024 339.88 51.432H344.776V46.8H346.96V51.432H349.072V53.16H346.96V57H344.776V53.16Z" fill="black"/>
<path d="M7.44 54.288C5.328 54.288 3.728 53.56 2.64 52.104C1.568 50.632 1.032 48.56 1.032 45.888C1.032 43.04 1.568 40.84 2.64 39.288C3.728 37.736 5.328 36.96 7.44 36.96C9.552 36.96 11.144 37.736 12.216 39.288C13.304 40.84 13.848 43.04 13.848 45.888C13.848 48.56 13.304 50.632 12.216 52.104C11.144 53.56 9.552 54.288 7.44 54.288ZM7.44 52.488C8.848 52.488 9.888 51.912 10.56 50.76C11.232 49.608 11.568 47.984 11.568 45.888C11.568 43.6 11.232 41.84 10.56 40.608C9.888 39.376 8.848 38.76 7.44 38.76C4.688 38.76 3.312 41.136 3.312 45.888C3.312 50.288 4.688 52.488 7.44 52.488Z" fill="black"/>
<path d="M441.936 45.96C442.992 45.96 443.928 46.184 444.744 46.632C445.56 47.064 446.192 47.696 446.64 48.528C447.104 49.344 447.336 50.312 447.336 51.432C447.336 53.208 446.824 54.616 445.8 55.656C444.776 56.696 443.4 57.216 441.672 57.216C440.632 57.216 439.728 57.072 438.96 56.784C438.192 56.48 437.6 56.096 437.184 55.632C436.784 55.168 436.584 54.696 436.584 54.216C436.584 53.448 436.992 53.008 437.808 52.896C438.48 54.64 439.744 55.512 441.6 55.512C442.752 55.512 443.624 55.152 444.216 54.432C444.824 53.696 445.128 52.728 445.128 51.528C445.128 50.232 444.824 49.272 444.216 48.648C443.624 48.024 442.776 47.712 441.672 47.712C440.936 47.712 440.304 47.856 439.776 48.144C439.248 48.432 438.768 48.88 438.336 49.488L436.776 49.224L437.352 40.2H446.184V41.904H439.248L438.912 46.848C439.728 46.256 440.736 45.96 441.936 45.96Z" fill="black"/>
</svg>
